<?xml version="1.0" encoding="utf-8"?>
<svg width="22px" height="22px" viewBox="0.96 0.908 22 22" fill="none" stroke="currentColor" stroke-width="2" stroke-linecap="round" stroke-linejoin="round" class="feather feather-github" xmlns="http://www.w3.org/2000/svg">
  <path d="M 9.063 18.877 C 4.055 20.269 4.055 16.554 2.052 16.089 M 16.076 21.663 L 16.076 18.068 C 16.152 17.171 15.808 16.289 15.134 15.644 C 18.279 15.319 21.585 14.213 21.585 9.14 C 21.585 7.844 21.047 6.596 20.083 5.658 C 20.539 4.522 20.507 3.268 19.992 2.155 C 19.992 2.155 18.81 1.83 16.076 3.53 C 13.78 2.953 11.359 2.953 9.063 3.53 C 6.329 1.83 5.147 2.155 5.147 2.155 C 4.632 3.268 4.6 4.522 5.057 5.658 C 4.085 6.604 3.547 7.862 3.554 9.169 C 3.554 14.203 6.86 15.309 10.006 15.671 C 9.34 16.31 8.997 17.181 9.063 18.068 L 9.063 21.663" style="stroke: rgba(0, 0, 0, 0.8);"/>
</svg>