<?xml version="1.0" encoding="utf-8"?>
<svg width="22px" height="22px" viewBox="0 0 22 22" fill="none" stroke="currentColor" stroke-width="2" stroke-linecap="round" stroke-linejoin="round" class="feather feather-youtube" xmlns="http://www.w3.org/2000/svg">
  <path d="M 20.546 6.196 C 20.326 5.319 19.655 4.627 18.785 4.381 C 17.225 4 10.982 4 10.982 4 C 10.982 4 4.739 4 3.178 4.417 C 2.308 4.663 1.637 5.356 1.417 6.232 C 1.132 7.816 0.992 9.423 1 11.032 C 0.99 12.654 1.129 14.273 1.417 15.869 C 1.659 16.718 2.327 17.378 3.178 17.611 C 4.739 18.029 10.982 18.029 10.982 18.029 C 10.982 18.029 17.225 18.029 18.785 17.611 C 19.655 17.365 20.326 16.673 20.546 15.796 C 20.829 14.224 20.969 12.63 20.963 11.032 C 20.973 9.411 20.834 7.792 20.546 6.196 L 20.546 6.196 Z" style=""/>
  <polygon points="8.94 14 14.158 11.032 8.94 8.065 8.94 14" style=""/>
</svg>